<?xml version="1.0" encoding="UTF-8" standalone="no"?>
<!-- Created with Inkscape (http://www.inkscape.org/) -->
<svg xmlns:dc="http://purl.org/dc/elements/1.1/" xmlns:cc="http://creativecommons.org/ns#" xmlns:rdf="http://www.w3.org/1999/02/22-rdf-syntax-ns#" xmlns:svg="http://www.w3.org/2000/svg" xmlns="http://www.w3.org/2000/svg" xmlns:sodipodi="http://sodipodi.sourceforge.net/DTD/sodipodi-0.dtd" xmlns:inkscape="http://www.inkscape.org/namespaces/inkscape" width="120.47243" height="35.433071" id="svg2" version="1.1" inkscape:version="0.48.3.1 r9886" sodipodi:docname="Neues Dokument 1">
  <defs id="defs4"/>
  <sodipodi:namedview id="base" pagecolor="#ffffff" bordercolor="#666666" borderopacity="1.0" inkscape:pageopacity="0.0" inkscape:pageshadow="2" inkscape:zoom="7.9195959" inkscape:cx="77.483057" inkscape:cy="22.877443" inkscape:document-units="px" inkscape:current-layer="layer1" showgrid="true" units="mm" inkscape:window-width="1920" inkscape:window-height="1017" inkscape:window-x="-8" inkscape:window-y="-8" inkscape:window-maximized="1">
    <inkscape:grid type="xygrid" id="grid2985" empspacing="8" visible="true" enabled="true" snapvisiblegridlinesonly="true" units="mm" spacingx="1mm" spacingy="1mm"/>
  </sodipodi:namedview>
  <metadata id="metadata7">
    <rdf:RDF>
      <cc:Work rdf:about="">
        <dc:format>image/svg+xml</dc:format>
        <dc:type rdf:resource="http://purl.org/dc/dcmitype/StillImage"/>
        <dc:title/>
      </cc:Work>
    </rdf:RDF>
  </metadata>
  <g inkscape:label="Ebene 1" inkscape:groupmode="layer" id="layer1" transform="translate(0,-1016.9291)">
    <path style="fill:none;stroke:#000000;stroke-width:1px;stroke-linecap:butt;stroke-linejoin:miter;stroke-opacity:1" d="m 116.92914,1034.6456 c 0,0 -1.57972,7.4527 -3.54331,10.6299 -0.87815,1.4209 -1.87298,3.5433 -3.54331,3.5433 -1.67033,0 -2.66516,-2.1224 -3.5433,-3.5433 -1.9636,-3.1772 -3.54331,-10.6299 -3.54331,-10.6299 l 0,0 c 0,0 -1.57972,-7.4527 -3.54331,-10.6299 -0.87814,-1.4209 -1.87298,-3.5433 -3.54331,-3.5433 -1.67032,0 -2.66516,2.1224 -3.54331,3.5433 -1.96359,3.1772 -3.5433,10.6299 -3.5433,10.6299 l 0,0 c 0,0 -1.57972,7.4527 -3.54331,10.6299 -0.87815,1.4209 -1.87298,3.5433 -3.54331,3.5433 -1.67033,0 -2.66516,-2.1224 -3.5433,-3.5433 -1.9636,-3.1772 -3.543311,-10.6299 -3.543311,-10.6299 l 0,0 c 0,0 -1.579716,-7.4527 -3.543307,-10.6299 -0.878145,-1.4209 -1.872978,-3.5433 -3.543307,-3.5433 -1.670329,0 -2.665162,2.1224 -3.543307,3.5433 -1.963591,3.1772 -3.543308,10.6299 -3.543308,10.6299 0,0 -1.579717,7.4527 -3.543308,10.6299 -0.878145,1.4209 -1.872978,3.5433 -3.543307,3.5433 -1.670329,0 -2.665162,-2.1224 -3.543307,-3.5433 -1.963591,-3.1772 -3.543307,-10.6299 -3.543307,-10.6299 l 0,0 c 0,0 -1.579716,-7.4527 -3.543307,-10.6299 -0.878145,-1.4209 -1.872978,-3.5433 -3.543307,-3.5433 -1.670329,0 -2.665162,2.1224 -3.543307,3.5433 -1.963591,3.1772 -3.543307,10.6299 -3.543307,10.6299 l 0,0 c 0,0 -1.579716,7.4527 -3.543307,10.6299 -0.878145,1.4209 -1.872978,3.5433 -3.543307,3.5433 -1.670329,0 -2.665162,-2.1224 -3.543307,-3.5433 -1.963591,-3.1772 -3.543307,-10.6299 -3.543307,-10.6299 l 0,0 c 0,0 -1.579716,-7.4527 -3.543307,-10.6299 -0.878145,-1.4209 -1.872978,-3.5433 -3.543307,-3.5433 -1.6703288,0 -2.6651618,2.1224 -3.5433068,3.5433 -1.963591,3.1772 -3.543307,10.6299 -3.543307,10.6299" id="path2987-1-7-4" inkscape:connector-curvature="0" sodipodi:nodetypes="caaaaaaaaccaaaaaaaacaaaaaaaaccaaaaaaaac"/>
  </g>
</svg>