<?xml version="1.0" encoding="UTF-8"?>
<svg xmlns="http://www.w3.org/2000/svg" xmlns:xlink="http://www.w3.org/1999/xlink" width="33pt" height="20pt" viewBox="0 0 33 20" version="1.1">
<g id="surface1">
<path style=" stroke:none;fill-rule:nonzero;fill:rgb(0%,0%,0%);fill-opacity:1;" d="M 32.464844 17.167969 L 32.464844 1.207031 L 30.863281 2.613281 L 30.863281 18.574219 L 32.464844 17.167969 "/>
<path style="fill:none;stroke-width:4;stroke-linecap:butt;stroke-linejoin:miter;stroke:rgb(100%,100%,100%);stroke-opacity:1;stroke-miterlimit:4;" d="M 324.648438 28.320312 L 324.648438 187.929688 L 308.632812 173.867188 L 308.632812 14.257812 Z M 324.648438 28.320312 " transform="matrix(0.1,0,0,-0.1,0,20)"/>
<path style="fill-rule:nonzero;fill:rgb(0%,0%,0%);fill-opacity:1;stroke-width:4;stroke-linecap:butt;stroke-linejoin:miter;stroke:rgb(100%,100%,100%);stroke-opacity:1;stroke-miterlimit:4;" d="M 7.070312 14.492188 L 308.28125 14.492188 L 308.28125 173.554688 L 7.070312 173.554688 Z M 7.070312 14.492188 " transform="matrix(0.1,0,0,-0.1,0,20)"/>
<path style=" stroke:none;fill-rule:nonzero;fill:rgb(0%,0%,0%);fill-opacity:1;" d="M 2.539062 6.132812 C 2.539062 4.535156 4.195312 4.300781 4.195312 4.300781 C 4.195312 4.300781 21.511719 4.300781 23.046875 4.300781 C 25.058594 4.300781 25 6.191406 25 6.191406 C 25 6.191406 25 13.996094 25 15.121094 C 25 16.242188 23.464844 16.71875 23.464844 16.71875 C 23.464844 16.71875 5.851562 16.71875 4.429688 16.71875 C 3.011719 16.71875 2.539062 15.238281 2.539062 15.238281 L 2.539062 6.132812 "/>
<path style="fill:none;stroke-width:4;stroke-linecap:butt;stroke-linejoin:miter;stroke:rgb(100%,100%,100%);stroke-opacity:1;stroke-miterlimit:4;" d="M 25.390625 138.671875 C 25.390625 154.648438 41.953125 156.992188 41.953125 156.992188 C 41.953125 156.992188 215.117188 156.992188 230.46875 156.992188 C 250.585938 156.992188 250 138.085938 250 138.085938 C 250 138.085938 250 60.039062 250 48.789062 C 250 37.578125 234.648438 32.8125 234.648438 32.8125 C 234.648438 32.8125 58.515625 32.8125 44.296875 32.8125 C 30.117188 32.8125 25.390625 47.617188 25.390625 47.617188 Z M 25.390625 138.671875 " transform="matrix(0.1,0,0,-0.1,0,20)"/>
<path style=" stroke:none;fill-rule:nonzero;fill:rgb(0%,0%,0%);fill-opacity:1;" d="M 32.464844 1.214844 L 2.34375 1.214844 L 0.707031 2.644531 L 30.828125 2.644531 L 32.464844 1.214844 "/>
<path style="fill:none;stroke-width:4;stroke-linecap:butt;stroke-linejoin:miter;stroke:rgb(100%,100%,100%);stroke-opacity:1;stroke-miterlimit:4;" d="M 324.648438 187.851562 L 23.4375 187.851562 L 7.070312 173.554688 L 308.28125 173.554688 Z M 324.648438 187.851562 " transform="matrix(0.1,0,0,-0.1,0,20)"/>
<path style=" stroke:none;fill-rule:nonzero;fill:rgb(0%,0%,0%);fill-opacity:1;" d="M 28.699219 5.921875 C 28.699219 6.175781 28.328125 6.378906 27.863281 6.378906 C 27.40625 6.378906 27.03125 6.175781 27.03125 5.921875 C 27.03125 5.667969 27.40625 5.464844 27.863281 5.464844 C 28.328125 5.464844 28.699219 5.667969 28.699219 5.921875 "/>
<path style="fill:none;stroke-width:4;stroke-linecap:butt;stroke-linejoin:miter;stroke:rgb(100%,100%,100%);stroke-opacity:1;stroke-miterlimit:4;" d="M 286.992188 140.78125 C 286.992188 138.242188 283.28125 136.210938 278.632812 136.210938 C 274.0625 136.210938 270.3125 138.242188 270.3125 140.78125 C 270.3125 143.320312 274.0625 145.351562 278.632812 145.351562 C 283.28125 145.351562 286.992188 143.320312 286.992188 140.78125 Z M 286.992188 140.78125 " transform="matrix(0.1,0,0,-0.1,0,20)"/>
<path style=" stroke:none;fill-rule:nonzero;fill:rgb(0%,0%,0%);fill-opacity:1;" d="M 28.699219 9.253906 C 28.699219 9.507812 28.328125 9.714844 27.863281 9.714844 C 27.40625 9.714844 27.03125 9.507812 27.03125 9.253906 C 27.03125 9 27.40625 8.796875 27.863281 8.796875 C 28.328125 8.796875 28.699219 9 28.699219 9.253906 "/>
<path style="fill:none;stroke-width:4;stroke-linecap:butt;stroke-linejoin:miter;stroke:rgb(100%,100%,100%);stroke-opacity:1;stroke-miterlimit:4;" d="M 286.992188 107.460938 C 286.992188 104.921875 283.28125 102.851562 278.632812 102.851562 C 274.0625 102.851562 270.3125 104.921875 270.3125 107.460938 C 270.3125 110 274.0625 112.03125 278.632812 112.03125 C 283.28125 112.03125 286.992188 110 286.992188 107.460938 Z M 286.992188 107.460938 " transform="matrix(0.1,0,0,-0.1,0,20)"/>
<path style=" stroke:none;fill-rule:nonzero;fill:rgb(0%,0%,0%);fill-opacity:1;" d="M 28.699219 12.585938 C 28.699219 12.839844 28.328125 13.042969 27.863281 13.042969 C 27.40625 13.042969 27.03125 12.839844 27.03125 12.585938 C 27.03125 12.332031 27.40625 12.128906 27.863281 12.128906 C 28.328125 12.128906 28.699219 12.332031 28.699219 12.585938 "/>
<path style="fill:none;stroke-width:4;stroke-linecap:butt;stroke-linejoin:miter;stroke:rgb(100%,100%,100%);stroke-opacity:1;stroke-miterlimit:4;" d="M 286.992188 74.140625 C 286.992188 71.601562 283.28125 69.570312 278.632812 69.570312 C 274.0625 69.570312 270.3125 71.601562 270.3125 74.140625 C 270.3125 76.679688 274.0625 78.710938 278.632812 78.710938 C 283.28125 78.710938 286.992188 76.679688 286.992188 74.140625 Z M 286.992188 74.140625 " transform="matrix(0.1,0,0,-0.1,0,20)"/>
<path style=" stroke:none;fill-rule:nonzero;fill:rgb(0%,0%,0%);fill-opacity:1;" d="M 28.699219 15.917969 C 28.699219 16.175781 28.328125 16.378906 27.863281 16.378906 C 27.40625 16.378906 27.03125 16.175781 27.03125 15.917969 C 27.03125 15.667969 27.40625 15.460938 27.863281 15.460938 C 28.328125 15.460938 28.699219 15.667969 28.699219 15.917969 "/>
<path style="fill:none;stroke-width:4;stroke-linecap:butt;stroke-linejoin:miter;stroke:rgb(100%,100%,100%);stroke-opacity:1;stroke-miterlimit:4;" d="M 286.992188 40.820312 C 286.992188 38.242188 283.28125 36.210938 278.632812 36.210938 C 274.0625 36.210938 270.3125 38.242188 270.3125 40.820312 C 270.3125 43.320312 274.0625 45.390625 278.632812 45.390625 C 283.28125 45.390625 286.992188 43.320312 286.992188 40.820312 Z M 286.992188 40.820312 " transform="matrix(0.1,0,0,-0.1,0,20)"/>
</g>
</svg>
