<?xml version="1.0" encoding="UTF-8"?>
<svg xmlns="http://www.w3.org/2000/svg" xmlns:xlink="http://www.w3.org/1999/xlink" width="39pt" height="35pt" viewBox="0 0 39 35" version="1.1">
<g id="surface1">
<path style="fill-rule:nonzero;fill:rgb(0%,0%,0%);fill-opacity:1;stroke-width:4;stroke-linecap:butt;stroke-linejoin:miter;stroke:rgb(100%,100%,100%);stroke-opacity:1;stroke-miterlimit:4;" d="M 7.421875 59.453125 L 322.1875 59.453125 L 322.1875 118.515625 L 7.421875 118.515625 Z M 7.421875 59.453125 " transform="matrix(0.1,0,0,-0.1,0,35)"/>
<path style="fill:none;stroke-width:4;stroke-linecap:butt;stroke-linejoin:miter;stroke:rgb(100%,100%,100%);stroke-opacity:1;stroke-miterlimit:4;" d="M 225.78125 85.078125 L 305.15625 85.078125 " transform="matrix(0.1,0,0,-0.1,0,35)"/>
<path style="fill:none;stroke-width:4;stroke-linecap:butt;stroke-linejoin:miter;stroke:rgb(100%,100%,100%);stroke-opacity:1;stroke-miterlimit:4;" d="M 225.78125 87.890625 L 305.15625 87.890625 " transform="matrix(0.1,0,0,-0.1,0,35)"/>
<path style=" stroke:none;fill-rule:nonzero;fill:rgb(0%,0%,0%);fill-opacity:1;" d="M 37.5 23.457031 L 37.5 18.171875 L 32.214844 23.171875 L 32.214844 29.054688 L 37.5 23.457031 "/>
<path style="fill:none;stroke-width:4;stroke-linecap:butt;stroke-linejoin:miter;stroke:rgb(100%,100%,100%);stroke-opacity:1;stroke-miterlimit:4;" d="M 375 115.429688 L 375 168.28125 L 322.148438 118.28125 L 322.148438 59.453125 Z M 375 115.429688 " transform="matrix(0.1,0,0,-0.1,0,35)"/>
<path style=" stroke:none;fill-rule:nonzero;fill:rgb(0%,0%,0%);fill-opacity:1;" d="M 26.628906 33.867188 L 26.628906 32.558594 L 29.488281 28.585938 L 29.488281 31.007812 L 26.628906 33.867188 "/>
<path style="fill:none;stroke-width:4;stroke-linecap:butt;stroke-linejoin:round;stroke:rgb(100%,100%,100%);stroke-opacity:1;stroke-miterlimit:4;" d="M 266.289062 11.328125 L 266.289062 24.414062 L 294.882812 64.140625 L 294.882812 39.921875 Z M 266.289062 11.328125 " transform="matrix(0.1,0,0,-0.1,0,35)"/>
<path style="fill-rule:nonzero;fill:rgb(0%,0%,0%);fill-opacity:1;stroke-width:4;stroke-linecap:butt;stroke-linejoin:miter;stroke:rgb(100%,100%,100%);stroke-opacity:1;stroke-miterlimit:4;" d="M 14.414062 11.328125 L 266.289062 11.328125 L 266.289062 24.414062 L 14.414062 24.414062 Z M 14.414062 11.328125 " transform="matrix(0.1,0,0,-0.1,0,35)"/>
<path style=" stroke:none;fill-rule:nonzero;fill:rgb(0%,0%,0%);fill-opacity:1;" d="M 26.628906 32.558594 L 1.441406 32.558594 L 4.355469 28.585938 L 29.488281 28.585938 L 26.628906 32.558594 "/>
<path style="fill:none;stroke-width:4;stroke-linecap:butt;stroke-linejoin:round;stroke:rgb(100%,100%,100%);stroke-opacity:1;stroke-miterlimit:4;" d="M 266.289062 24.414062 L 14.414062 24.414062 L 43.554688 64.140625 L 294.882812 64.140625 Z M 266.289062 24.414062 " transform="matrix(0.1,0,0,-0.1,0,35)"/>
<path style=" stroke:none;fill-rule:nonzero;fill:rgb(0%,0%,0%);fill-opacity:1;" d="M 37.5 18.171875 L 6.019531 18.171875 L 0.742188 23.148438 L 32.21875 23.148438 L 37.5 18.171875 "/>
<path style="fill:none;stroke-width:4;stroke-linecap:butt;stroke-linejoin:miter;stroke:rgb(100%,100%,100%);stroke-opacity:1;stroke-miterlimit:4;" d="M 375 168.28125 L 60.195312 168.28125 L 7.421875 118.515625 L 322.1875 118.515625 Z M 375 168.28125 " transform="matrix(0.1,0,0,-0.1,0,35)"/>
<path style="fill-rule:nonzero;fill:rgb(0%,0%,0%);fill-opacity:1;stroke-width:4;stroke-linecap:butt;stroke-linejoin:miter;stroke:rgb(100%,100%,100%);stroke-opacity:1;stroke-miterlimit:4;" d="M 63.75 147.695312 L 280.742188 147.695312 L 280.742188 306.875 L 63.75 306.875 Z M 63.75 147.695312 " transform="matrix(0.1,0,0,-0.1,0,35)"/>
<path style=" stroke:none;fill-rule:nonzero;fill:rgb(0%,0%,0%);fill-opacity:1;" d="M 8.207031 7.804688 C 8.207031 6.210938 9.863281 5.972656 9.863281 5.972656 C 9.863281 5.972656 22.632812 5.972656 24.171875 5.972656 C 26.183594 5.972656 26.121094 7.863281 26.121094 7.863281 C 26.121094 7.863281 26.121094 15.671875 26.121094 16.792969 C 26.121094 17.917969 24.585938 18.390625 24.585938 18.390625 C 24.585938 18.390625 11.519531 18.390625 10.097656 18.390625 C 8.679688 18.390625 8.207031 16.910156 8.207031 16.910156 L 8.207031 7.804688 "/>
<path style="fill:none;stroke-width:4;stroke-linecap:butt;stroke-linejoin:miter;stroke:rgb(100%,100%,100%);stroke-opacity:1;stroke-miterlimit:4;" d="M 82.070312 271.953125 C 82.070312 287.890625 98.632812 290.273438 98.632812 290.273438 C 98.632812 290.273438 226.328125 290.273438 241.71875 290.273438 C 261.835938 290.273438 261.210938 271.367188 261.210938 271.367188 C 261.210938 271.367188 261.210938 193.28125 261.210938 182.070312 C 261.210938 170.820312 245.859375 166.09375 245.859375 166.09375 C 245.859375 166.09375 115.195312 166.09375 100.976562 166.09375 C 86.796875 166.09375 82.070312 180.898438 82.070312 180.898438 Z M 82.070312 271.953125 " transform="matrix(0.1,0,0,-0.1,0,35)"/>
<path style=" stroke:none;fill-rule:nonzero;fill:rgb(0%,0%,0%);fill-opacity:1;" d="M 31.710938 0.886719 L 10.011719 0.886719 L 6.375 4.3125 L 28.074219 4.3125 L 31.710938 0.886719 "/>
<path style="fill:none;stroke-width:4;stroke-linecap:butt;stroke-linejoin:miter;stroke:rgb(100%,100%,100%);stroke-opacity:1;stroke-miterlimit:4;" d="M 317.109375 341.132812 L 100.117188 341.132812 L 63.75 306.875 L 280.742188 306.875 Z M 317.109375 341.132812 " transform="matrix(0.1,0,0,-0.1,0,35)"/>
<path style=" stroke:none;fill-rule:nonzero;fill:rgb(0%,0%,0%);fill-opacity:1;" d="M 31.710938 16.84375 L 31.710938 0.882812 L 28.109375 4.3125 L 28.109375 20.230469 L 31.710938 16.84375 "/>
<path style="fill:none;stroke-width:4;stroke-linecap:butt;stroke-linejoin:round;stroke:rgb(100%,100%,100%);stroke-opacity:1;stroke-miterlimit:4;" d="M 317.109375 181.5625 L 317.109375 341.171875 L 281.09375 306.875 L 281.09375 147.695312 Z M 317.109375 181.5625 " transform="matrix(0.1,0,0,-0.1,0,35)"/>
</g>
</svg>
