<?xml version="1.0" encoding="UTF-8"?>
<svg xmlns="http://www.w3.org/2000/svg" xmlns:xlink="http://www.w3.org/1999/xlink" width="39pt" height="37pt" viewBox="0 0 39 37" version="1.1">
<g id="surface1">
<path style=" stroke:none;fill-rule:nonzero;fill:rgb(0%,0%,0%);fill-opacity:1;" d="M 13.042969 15.09375 L 33.625 15.09375 L 36.546875 1.085938 L 16.96875 1.085938 L 13.042969 15.09375 "/>
<path style="fill:none;stroke-width:3.2;stroke-linecap:butt;stroke-linejoin:miter;stroke:rgb(100%,100%,100%);stroke-opacity:1;stroke-miterlimit:1;" d="M 130.429688 219.0625 L 336.25 219.0625 L 365.46875 359.140625 L 169.6875 359.140625 Z M 130.429688 219.0625 " transform="matrix(0.1,0,0,-0.1,0,37)"/>
<path style=" stroke:none;fill-rule:nonzero;fill:rgb(0%,0%,0%);fill-opacity:1;" d="M 13.042969 15.09375 L 15.148438 19.09375 L 35.730469 19.09375 L 33.625 15.09375 L 13.042969 15.09375 "/>
<path style="fill:none;stroke-width:3.2;stroke-linecap:butt;stroke-linejoin:miter;stroke:rgb(100%,100%,100%);stroke-opacity:1;stroke-miterlimit:1;" d="M 130.429688 219.0625 L 151.484375 179.0625 L 357.304688 179.0625 L 336.25 219.0625 Z M 130.429688 219.0625 " transform="matrix(0.1,0,0,-0.1,0,37)"/>
<path style=" stroke:none;fill-rule:nonzero;fill:rgb(0%,0%,0%);fill-opacity:1;" d="M 36.546875 1.085938 L 38.523438 4.839844 L 35.730469 19.09375 L 33.625 15.09375 L 36.546875 1.085938 "/>
<path style="fill:none;stroke-width:3.2;stroke-linecap:butt;stroke-linejoin:miter;stroke:rgb(100%,100%,100%);stroke-opacity:1;stroke-miterlimit:1;" d="M 365.46875 359.140625 L 385.234375 321.601562 L 357.304688 179.0625 L 336.25 219.0625 Z M 365.46875 359.140625 " transform="matrix(0.1,0,0,-0.1,0,37)"/>
<path style=" stroke:none;fill-rule:nonzero;fill:rgb(0%,0%,0%);fill-opacity:1;" d="M 0.648438 32.695312 L 16.425781 32.695312 L 31.347656 15.488281 L 16.578125 15.488281 L 0.648438 32.695312 "/>
<path style="fill:none;stroke-width:3.2;stroke-linecap:butt;stroke-linejoin:miter;stroke:rgb(100%,100%,100%);stroke-opacity:1;stroke-miterlimit:1;" d="M 6.484375 43.046875 L 164.257812 43.046875 L 313.476562 215.117188 L 165.78125 215.117188 Z M 6.484375 43.046875 " transform="matrix(0.1,0,0,-0.1,0,37)"/>
<path style=" stroke:none;fill-rule:nonzero;fill:rgb(0%,0%,0%);fill-opacity:1;" d="M 0.648438 32.695312 L 2.753906 36.695312 L 18.53125 36.695312 L 16.425781 32.695312 L 0.648438 32.695312 "/>
<path style="fill:none;stroke-width:3.2;stroke-linecap:butt;stroke-linejoin:miter;stroke:rgb(100%,100%,100%);stroke-opacity:1;stroke-miterlimit:1;" d="M 6.484375 43.046875 L 27.539062 3.046875 L 185.3125 3.046875 L 164.257812 43.046875 Z M 6.484375 43.046875 " transform="matrix(0.1,0,0,-0.1,0,37)"/>
<path style=" stroke:none;fill-rule:nonzero;fill:rgb(0%,0%,0%);fill-opacity:1;" d="M 31.347656 15.488281 L 33.324219 19.238281 L 18.53125 36.695312 L 16.425781 32.695312 L 31.347656 15.488281 "/>
<path style="fill:none;stroke-width:3.2;stroke-linecap:butt;stroke-linejoin:miter;stroke:rgb(100%,100%,100%);stroke-opacity:1;stroke-miterlimit:1;" d="M 313.476562 215.117188 L 333.242188 177.617188 L 185.3125 3.046875 L 164.257812 43.046875 Z M 313.476562 215.117188 " transform="matrix(0.1,0,0,-0.1,0,37)"/>
<path style=" stroke:none;fill-rule:nonzero;fill:rgb(100%,100%,100%);fill-opacity:1;" d="M 15.988281 17.007812 L 17.59375 17.007812 L 16.5 18.210938 L 14.894531 18.210938 L 15.988281 17.007812 "/>
<path style=" stroke:none;fill-rule:nonzero;fill:rgb(100%,100%,100%);fill-opacity:1;" d="M 13.527344 20.769531 L 15.460938 20.316406 L 14.367188 21.519531 L 13.316406 20.871094 "/>
<path style=" stroke:none;fill-rule:nonzero;fill:rgb(100%,100%,100%);fill-opacity:1;" d="M 18.796875 17.007812 L 20.402344 17.007812 L 19.3125 18.210938 L 17.707031 18.210938 L 18.796875 17.007812 "/>
<path style=" stroke:none;fill-rule:nonzero;fill:rgb(100%,100%,100%);fill-opacity:1;" d="M 21.609375 17.007812 L 23.214844 17.007812 L 22.324219 18.210938 L 20.519531 18.210938 L 21.609375 17.007812 "/>
<path style=" stroke:none;fill-rule:nonzero;fill:rgb(100%,100%,100%);fill-opacity:1;" d="M 24.421875 17.007812 L 26.03125 17.007812 L 25.136719 18.210938 L 23.53125 18.210938 L 24.421875 17.007812 "/>
<path style=" stroke:none;fill-rule:nonzero;fill:rgb(100%,100%,100%);fill-opacity:1;" d="M 12.863281 23.945312 L 14.46875 23.945312 L 13.335938 25.144531 L 11.726562 25.144531 L 12.863281 23.945312 "/>
<path style=" stroke:none;fill-rule:nonzero;fill:rgb(100%,100%,100%);fill-opacity:1;" d="M 15.675781 23.945312 L 17.28125 23.945312 L 16.347656 25.144531 L 14.539062 25.144531 L 15.675781 23.945312 "/>
<path style=" stroke:none;fill-rule:nonzero;fill:rgb(100%,100%,100%);fill-opacity:1;" d="M 18.488281 23.945312 L 20.09375 23.945312 L 19.160156 25.144531 L 17.550781 25.144531 L 18.488281 23.945312 "/>
<path style=" stroke:none;fill-rule:nonzero;fill:rgb(100%,100%,100%);fill-opacity:1;" d="M 9.664062 27.144531 L 11.269531 27.144531 L 10.25 28.34375 L 8.644531 28.34375 L 9.664062 27.144531 "/>
<path style=" stroke:none;fill-rule:nonzero;fill:rgb(100%,100%,100%);fill-opacity:1;" d="M 12.472656 27.144531 L 14.082031 27.144531 L 13.261719 28.34375 L 11.457031 28.34375 L 12.472656 27.144531 "/>
<path style=" stroke:none;fill-rule:nonzero;fill:rgb(100%,100%,100%);fill-opacity:1;" d="M 15.285156 27.144531 L 16.894531 27.144531 L 16.074219 28.34375 L 14.46875 28.34375 L 15.285156 27.144531 "/>
<path style=" stroke:none;fill-rule:nonzero;fill:rgb(100%,100%,100%);fill-opacity:1;" d="M 27.433594 17.007812 L 29.039062 17.007812 L 27.949219 18.210938 L 26.34375 18.210938 L 27.433594 17.007812 "/>
<path style=" stroke:none;fill-rule:nonzero;fill:rgb(100%,100%,100%);fill-opacity:1;" d="M 23.488281 20.53125 L 24.621094 21.089844 L 24.40625 21.195312 L 22.394531 21.730469 L 23.488281 20.53125 "/>
<path style=" stroke:none;fill-rule:nonzero;fill:rgb(100%,100%,100%);fill-opacity:1;" d="M 20.796875 20.902344 C 20.488281 21.414062 19.285156 21.835938 18.105469 21.835938 C 16.925781 21.835938 16.222656 21.414062 16.53125 20.902344 C 16.839844 20.386719 18.046875 19.96875 19.226562 19.96875 C 20.402344 19.96875 21.105469 20.386719 20.796875 20.902344 "/>
<path style=" stroke:none;fill-rule:nonzero;fill:rgb(0%,0%,0%);fill-opacity:1;" d="M 30.429688 11.988281 C 30.261719 12.625 29.605469 13.140625 28.96875 13.140625 L 18.210938 13.140625 C 17.574219 13.140625 17.195312 12.625 17.363281 11.988281 L 19.453125 4.160156 C 19.621094 3.519531 20.277344 3.003906 20.910156 3.003906 L 31.671875 3.003906 C 32.308594 3.003906 32.691406 3.519531 32.519531 4.160156 L 30.429688 11.988281 "/>
<path style="fill:none;stroke-width:3.2;stroke-linecap:butt;stroke-linejoin:miter;stroke:rgb(100%,100%,100%);stroke-opacity:1;stroke-miterlimit:1;" d="M 304.296875 250.117188 C 302.617188 243.75 296.054688 238.59375 289.6875 238.59375 L 182.109375 238.59375 C 175.742188 238.59375 171.953125 243.75 173.632812 250.117188 L 194.53125 328.398438 C 196.210938 334.804688 202.773438 339.960938 209.101562 339.960938 L 316.71875 339.960938 C 323.085938 339.960938 326.914062 334.804688 325.195312 328.398438 Z M 304.296875 250.117188 " transform="matrix(0.1,0,0,-0.1,0,37)"/>
</g>
</svg>
